# Blender 5.1.1
# www.blender.org
mtllib Cylinder.mtl
o Tunnel_Inner
v -5.000000 0.001472 -0.379964
v 5.000000 0.001472 -0.379964
v -5.000000 0.001472 0.379964
v 5.000000 0.001472 0.379964
v -5.000000 0.037246 0.378170
v 5.000000 0.037247 0.378170
v -5.000000 0.074134 0.372698
v 5.000000 0.074135 0.372698
v -5.000000 0.110308 0.363637
v 5.000000 0.110309 0.363637
v -5.000000 0.145419 0.351074
v 5.000000 0.145420 0.351074
v -5.000000 0.179130 0.335130
v 5.000000 0.179131 0.335130
v -5.000000 0.211116 0.315958
v 5.000000 0.211117 0.315958
v -5.000000 0.241069 0.293744
v 5.000000 0.241070 0.293744
v -5.000000 0.268700 0.268701
v 5.000000 0.268701 0.268701
v -5.000000 0.293744 0.241069
v 5.000000 0.293744 0.241069
v -5.000000 0.315958 0.211117
v 5.000000 0.315959 0.211117
v -5.000000 0.335130 0.179131
v 5.000000 0.335130 0.179131
v -5.000000 0.351074 0.145420
v 5.000000 0.351075 0.145420
v -5.000000 0.363637 0.110308
v 5.000000 0.363638 0.110308
v -5.000000 0.372698 0.074134
v 5.000000 0.372699 0.074134
v -5.000000 0.378170 0.037247
v 5.000000 0.378171 0.037247
v -5.000000 0.380000 0.000000
v 5.000000 0.380000 -0.000000
v -5.000000 0.378170 -0.037247
v 5.000000 0.378171 -0.037247
v -5.000000 0.372698 -0.074134
v 5.000000 0.372699 -0.074134
v -5.000000 0.363637 -0.110308
v 5.000000 0.363638 -0.110308
v -5.000000 0.351074 -0.145420
v 5.000000 0.351075 -0.145420
v -5.000000 0.335130 -0.179131
v 5.000000 0.335130 -0.179131
v -5.000000 0.315958 -0.211117
v 5.000000 0.315959 -0.211117
v -5.000000 0.293744 -0.241069
v 5.000000 0.293744 -0.241069
v -5.000000 0.268700 -0.268701
v 5.000000 0.268701 -0.268701
v -5.000000 0.241069 -0.293744
v 5.000000 0.241070 -0.293744
v -5.000000 0.211116 -0.315958
v 5.000000 0.211117 -0.315958
v -5.000000 0.179130 -0.335130
v 5.000000 0.179131 -0.335130
v -5.000000 0.145419 -0.351074
v 5.000000 0.145420 -0.351074
v -5.000000 0.110308 -0.363637
v 5.000000 0.110309 -0.363637
v -5.000000 0.074134 -0.372698
v 5.000000 0.074135 -0.372698
v -5.000000 0.037246 -0.378170
v 5.000000 0.037247 -0.378170
v -5.000000 -0.000000 -0.350000
v 5.000000 0.000000 -0.350000
v -5.000000 -0.000000 0.350000
v 5.000000 0.000000 0.350000
v -5.000000 0.034306 0.348315
v 5.000000 0.034306 0.348315
v -5.000000 0.068281 0.343275
v 5.000000 0.068282 0.343275
v -5.000000 0.101599 0.334929
v 5.000000 0.101600 0.334929
v -5.000000 0.133939 0.323358
v 5.000000 0.133940 0.323358
v -5.000000 0.164988 0.308672
v 5.000000 0.164989 0.308672
v -5.000000 0.194449 0.291014
v 5.000000 0.194450 0.291014
v -5.000000 0.222037 0.270554
v 5.000000 0.222038 0.270554
v -5.000000 0.247487 0.247487
v 5.000000 0.247488 0.247487
v -5.000000 0.270553 0.222038
v 5.000000 0.270554 0.222038
v -5.000000 0.291014 0.194450
v 5.000000 0.291015 0.194450
v -5.000000 0.308672 0.164989
v 5.000000 0.308673 0.164989
v -5.000000 0.323357 0.133939
v 5.000000 0.323358 0.133939
v -5.000000 0.334929 0.101600
v 5.000000 0.334929 0.101600
v -5.000000 0.343274 0.068282
v 5.000000 0.343275 0.068282
v -5.000000 0.348314 0.034306
v 5.000000 0.348315 0.034306
v -5.000000 0.350000 0.000000
v 5.000000 0.350000 0.000000
v -5.000000 0.348314 -0.034306
v 5.000000 0.348315 -0.034306
v -5.000000 0.343274 -0.068282
v 5.000000 0.343275 -0.068282
v -5.000000 0.334929 -0.101600
v 5.000000 0.334929 -0.101600
v -5.000000 0.323357 -0.133939
v 5.000000 0.323358 -0.133939
v -5.000000 0.308672 -0.164989
v 5.000000 0.308673 -0.164989
v -5.000000 0.291014 -0.194450
v 5.000000 0.291015 -0.194450
v -5.000000 0.270553 -0.222038
v 5.000000 0.270554 -0.222038
v -5.000000 0.247487 -0.247487
v 5.000000 0.247488 -0.247487
v -5.000000 0.222037 -0.270554
v 5.000000 0.222038 -0.270554
v -5.000000 0.194449 -0.291014
v 5.000000 0.194450 -0.291014
v -5.000000 0.164988 -0.308672
v 5.000000 0.164989 -0.308672
v -5.000000 0.133939 -0.323358
v 5.000000 0.133940 -0.323358
v -5.000000 0.101599 -0.334929
v 5.000000 0.101600 -0.334929
v -5.000000 0.068281 -0.343275
v 5.000000 0.068282 -0.343275
v -5.000000 0.034306 -0.348315
v 5.000000 0.034306 -0.348315
vn -0.5773 -0.5481 -0.6053
vn 0.5773 -0.5480 -0.6053
vn -0.5773 -0.5480 0.6053
vn 0.5773 -0.5480 0.6053
vn -0.6964 0.0707 0.7142
vn 0.6963 0.0707 0.7142
vn -0.6962 0.1400 0.7040
vn 0.6962 0.1400 0.7040
vn -0.6962 0.2084 0.6869
vn 0.6962 0.2084 0.6869
vn -0.6962 0.2747 0.6632
vn 0.6962 0.2747 0.6632
vn -0.6962 0.3384 0.6331
vn 0.6962 0.3384 0.6331
vn -0.6962 0.3988 0.5968
vn 0.6962 0.3988 0.5968
vn -0.6962 0.4554 0.5549
vn 0.6962 0.4554 0.5549
vn -0.6962 0.5076 0.5076
vn 0.6962 0.5076 0.5076
vn -0.6962 0.5549 0.4554
vn 0.6962 0.5549 0.4554
vn -0.6962 0.5968 0.3988
vn 0.6962 0.5968 0.3988
vn -0.6962 0.6331 0.3384
vn 0.6962 0.6331 0.3384
vn -0.6962 0.6632 0.2747
vn 0.6962 0.6632 0.2747
vn -0.6962 0.6869 0.2084
vn 0.6962 0.6869 0.2084
vn -0.6962 0.7040 0.1400
vn 0.6962 0.7040 0.1400
vn -0.6962 0.7144 0.0704
vn 0.6962 0.7144 0.0704
vn -0.6962 0.7178 -0.0000
vn 0.6962 0.7178 -0.0000
vn -0.6962 0.7144 -0.0704
vn 0.6962 0.7144 -0.0704
vn -0.6962 0.7040 -0.1400
vn 0.6962 0.7040 -0.1400
vn -0.6962 0.6869 -0.2084
vn 0.6962 0.6869 -0.2084
vn -0.6962 0.6632 -0.2747
vn 0.6962 0.6632 -0.2747
vn -0.6962 0.6331 -0.3384
vn 0.6962 0.6331 -0.3384
vn -0.6962 0.5968 -0.3988
vn 0.6962 0.5968 -0.3988
vn -0.6962 0.5549 -0.4554
vn 0.6962 0.5549 -0.4554
vn -0.6962 0.5076 -0.5076
vn 0.6962 0.5076 -0.5076
vn -0.6962 0.4554 -0.5549
vn 0.6962 0.4554 -0.5549
vn -0.6962 0.3988 -0.5968
vn 0.6962 0.3988 -0.5968
vn -0.6962 0.3384 -0.6331
vn 0.6962 0.3384 -0.6331
vn -0.6962 0.2747 -0.6632
vn 0.6962 0.2747 -0.6632
vn -0.6962 0.2084 -0.6869
vn 0.6962 0.2084 -0.6869
vn -0.6962 0.1400 -0.7040
vn 0.6962 0.1400 -0.7040
vn -0.6963 0.0707 -0.7142
vn 0.6963 0.0707 -0.7142
vn -0.5773 -0.6050 0.5483
vn 0.5774 -0.6050 0.5483
vn -0.5773 -0.6050 -0.5483
vn 0.5773 -0.6050 -0.5483
vn -0.7183 -0.0682 -0.6924
vn 0.7183 -0.0682 -0.6924
vn -0.7183 -0.1357 -0.6824
vn 0.7183 -0.1357 -0.6824
vn -0.7183 -0.2020 -0.6658
vn 0.7183 -0.2020 -0.6658
vn -0.7183 -0.2662 -0.6428
vn 0.7183 -0.2662 -0.6428
vn -0.7183 -0.3280 -0.6136
vn 0.7183 -0.3280 -0.6136
vn -0.7183 -0.3865 -0.5785
vn 0.7183 -0.3865 -0.5785
vn -0.7183 -0.4414 -0.5378
vn 0.7183 -0.4414 -0.5378
vn -0.7183 -0.4919 -0.4920
vn 0.7183 -0.4920 -0.4919
vn -0.7183 -0.5378 -0.4414
vn 0.7183 -0.5378 -0.4414
vn -0.7183 -0.5785 -0.3865
vn 0.7183 -0.5785 -0.3865
vn -0.7183 -0.6136 -0.3280
vn 0.7183 -0.6136 -0.3280
vn -0.7183 -0.6428 -0.2662
vn 0.7183 -0.6428 -0.2662
vn -0.7183 -0.6658 -0.2020
vn 0.7183 -0.6658 -0.2020
vn -0.7183 -0.6824 -0.1357
vn 0.7183 -0.6824 -0.1357
vn -0.7183 -0.6924 -0.0682
vn 0.7183 -0.6924 -0.0682
vn -0.7183 -0.6957 -0.0000
vn 0.7183 -0.6957 -0.0000
vn -0.7183 -0.6924 0.0682
vn 0.7183 -0.6924 0.0682
vn -0.7183 -0.6824 0.1357
vn 0.7183 -0.6824 0.1357
vn -0.7183 -0.6658 0.2020
vn 0.7183 -0.6658 0.2020
vn -0.7183 -0.6428 0.2662
vn 0.7183 -0.6428 0.2662
vn -0.7183 -0.6136 0.3280
vn 0.7183 -0.6136 0.3280
vn -0.7183 -0.5785 0.3865
vn 0.7183 -0.5785 0.3865
vn -0.7183 -0.5378 0.4414
vn 0.7183 -0.5378 0.4414
vn -0.7183 -0.4920 0.4919
vn 0.7183 -0.4919 0.4920
vn -0.7183 -0.4414 0.5378
vn 0.7183 -0.4414 0.5378
vn -0.7183 -0.3865 0.5785
vn 0.7183 -0.3865 0.5785
vn -0.7183 -0.3280 0.6136
vn 0.7183 -0.3280 0.6136
vn -0.7183 -0.2662 0.6428
vn 0.7183 -0.2662 0.6428
vn -0.7183 -0.2020 0.6658
vn 0.7183 -0.2020 0.6658
vn -0.7183 -0.1357 0.6824
vn 0.7183 -0.1357 0.6824
vn -0.7183 -0.0682 0.6924
vn 0.7183 -0.0682 0.6924
vt 0.500000 1.000000
vt 0.484375 0.000000
vt 0.500000 0.000000
vt 0.484375 1.000000
vt 0.468750 0.000000
vt 0.468750 1.000000
vt 0.453125 0.000000
vt 0.453125 1.000000
vt 0.437500 0.000000
vt 0.437500 1.000000
vt 0.421875 0.000000
vt 0.421875 1.000000
vt 0.406250 0.000000
vt 0.406250 1.000000
vt 0.390625 0.000000
vt 0.390625 1.000000
vt 0.375000 0.000000
vt 0.375000 1.000000
vt 0.359375 0.000000
vt 0.359375 1.000000
vt 0.343750 0.000000
vt 0.343750 1.000000
vt 0.328125 0.000000
vt 0.328125 1.000000
vt 0.312500 0.000000
vt 0.296875 1.000000
vt 0.296875 0.000000
vt 0.281250 0.000000
vt 0.281250 1.000000
vt 0.265625 0.000000
vt 0.265625 1.000000
vt 0.250000 0.000000
vt 0.250000 1.000000
vt 0.234375 0.000000
vt 0.234375 1.000000
vt 0.218750 0.000000
vt 0.218750 1.000000
vt 0.203125 0.000000
vt 0.203125 1.000000
vt 0.187500 0.000000
vt 0.187500 1.000000
vt 0.171875 0.000000
vt 0.171875 1.000000
vt 0.156250 0.000000
vt 0.156250 1.000000
vt 0.140625 0.000000
vt 0.140625 1.000000
vt 0.125000 0.000000
vt 0.125000 1.000000
vt 0.109375 0.000000
vt 0.109375 1.000000
vt 0.093750 0.000000
vt 0.093750 1.000000
vt 0.078125 0.000000
vt 0.078125 1.000000
vt 0.062500 0.000000
vt 0.062500 1.000000
vt 0.046875 0.000000
vt 0.046875 1.000000
vt 0.031250 0.000000
vt 0.031250 1.000000
vt 0.015625 0.000000
vt 0.015625 1.000000
vt 0.000000 0.000000
vt 0.312500 1.000000
vt 0.000000 1.000000
s 1
usemtl tunnel_baked_mat
f 4/1/4 5/2/5 3/3/3
f 6/4/6 7/5/7 5/2/5
f 8/6/8 9/7/9 7/5/7
f 10/8/10 11/9/11 9/7/9
f 12/10/12 13/11/13 11/9/11
f 14/12/14 15/13/15 13/11/13
f 16/14/16 17/15/17 15/13/15
f 18/16/18 19/17/19 17/15/17
f 20/18/20 21/19/21 19/17/19
f 22/20/22 23/21/23 21/19/21
f 24/22/24 25/23/25 23/21/23
f 26/24/26 27/25/27 25/23/25
f 27/25/27 30/26/30 29/27/29
f 30/26/30 31/28/31 29/27/29
f 32/29/32 33/30/33 31/28/31
f 34/31/34 35/32/35 33/30/33
f 36/33/36 37/34/37 35/32/35
f 38/35/38 39/36/39 37/34/37
f 40/37/40 41/38/41 39/36/39
f 42/39/42 43/40/43 41/38/41
f 44/41/44 45/42/45 43/40/43
f 46/43/46 47/44/47 45/42/45
f 48/45/48 49/46/49 47/44/47
f 50/47/50 51/48/51 49/46/49
f 52/49/52 53/50/53 51/48/51
f 54/51/54 55/52/55 53/50/53
f 56/53/56 57/54/57 55/52/55
f 58/55/58 59/56/59 57/54/57
f 60/57/60 61/58/61 59/56/59
f 62/59/62 63/60/63 61/58/61
f 64/61/64 65/62/65 63/60/63
f 66/63/66 1/64/1 65/62/65
f 4/1/4 6/4/6 5/2/5
f 6/4/6 8/6/8 7/5/7
f 8/6/8 10/8/10 9/7/9
f 10/8/10 12/10/12 11/9/11
f 12/10/12 14/12/14 13/11/13
f 14/12/14 16/14/16 15/13/15
f 16/14/16 18/16/18 17/15/17
f 18/16/18 20/18/20 19/17/19
f 20/18/20 22/20/22 21/19/21
f 22/20/22 24/22/24 23/21/23
f 24/22/24 26/24/26 25/23/25
f 26/24/26 28/65/28 27/25/27
f 27/25/27 28/65/28 30/26/30
f 30/26/30 32/29/32 31/28/31
f 32/29/32 34/31/34 33/30/33
f 34/31/34 36/33/36 35/32/35
f 36/33/36 38/35/38 37/34/37
f 38/35/38 40/37/40 39/36/39
f 40/37/40 42/39/42 41/38/41
f 42/39/42 44/41/44 43/40/43
f 44/41/44 46/43/46 45/42/45
f 46/43/46 48/45/48 47/44/47
f 48/45/48 50/47/50 49/46/49
f 50/47/50 52/49/52 51/48/51
f 52/49/52 54/51/54 53/50/53
f 54/51/54 56/53/56 55/52/55
f 56/53/56 58/55/58 57/54/57
f 58/55/58 60/57/60 59/56/59
f 60/57/60 62/59/62 61/58/61
f 62/59/62 64/61/64 63/60/63
f 64/61/64 66/63/66 65/62/65
f 66/63/66 2/66/2 1/64/1
f 70/1/70 69/3/69 71/2/71
f 72/4/72 71/2/71 73/5/73
f 74/6/74 73/5/73 75/7/75
f 76/8/76 75/7/75 77/9/77
f 78/10/78 77/9/77 79/11/79
f 80/12/80 79/11/79 81/13/81
f 82/14/82 81/13/81 83/15/83
f 84/16/84 83/15/83 85/17/85
f 86/18/86 85/17/85 87/19/87
f 88/20/88 87/19/87 89/21/89
f 90/22/90 89/21/89 91/23/91
f 92/24/92 91/23/91 93/25/93
f 93/25/93 95/27/95 96/26/96
f 96/26/96 95/27/95 97/28/97
f 98/29/98 97/28/97 99/30/99
f 100/31/100 99/30/99 101/32/101
f 102/33/102 101/32/101 103/34/103
f 104/35/104 103/34/103 105/36/105
f 106/37/106 105/36/105 107/38/107
f 108/39/108 107/38/107 109/40/109
f 110/41/110 109/40/109 111/42/111
f 112/43/112 111/42/111 113/44/113
f 114/45/114 113/44/113 115/46/115
f 116/47/116 115/46/115 117/48/117
f 118/49/118 117/48/117 119/50/119
f 120/51/120 119/50/119 121/52/121
f 122/53/122 121/52/121 123/54/123
f 124/55/124 123/54/123 125/56/125
f 126/57/126 125/56/125 127/58/127
f 128/59/128 127/58/127 129/60/129
f 130/61/130 129/60/129 131/62/131
f 132/63/132 131/62/131 67/64/67
f 70/1/70 71/2/71 72/4/72
f 72/4/72 73/5/73 74/6/74
f 74/6/74 75/7/75 76/8/76
f 76/8/76 77/9/77 78/10/78
f 78/10/78 79/11/79 80/12/80
f 80/12/80 81/13/81 82/14/82
f 82/14/82 83/15/83 84/16/84
f 84/16/84 85/17/85 86/18/86
f 86/18/86 87/19/87 88/20/88
f 88/20/88 89/21/89 90/22/90
f 90/22/90 91/23/91 92/24/92
f 92/24/92 93/25/93 94/65/94
f 93/25/93 96/26/96 94/65/94
f 96/26/96 97/28/97 98/29/98
f 98/29/98 99/30/99 100/31/100
f 100/31/100 101/32/101 102/33/102
f 102/33/102 103/34/103 104/35/104
f 104/35/104 105/36/105 106/37/106
f 106/37/106 107/38/107 108/39/108
f 108/39/108 109/40/109 110/41/110
f 110/41/110 111/42/111 112/43/112
f 112/43/112 113/44/113 114/45/114
f 114/45/114 115/46/115 116/47/116
f 116/47/116 117/48/117 118/49/118
f 118/49/118 119/50/119 120/51/120
f 120/51/120 121/52/121 122/53/122
f 122/53/122 123/54/123 124/55/124
f 124/55/124 125/56/125 126/57/126
f 126/57/126 127/58/127 128/59/128
f 128/59/128 129/60/129 130/61/130
f 130/61/130 131/62/131 132/63/132
f 132/63/132 67/64/67 68/66/68
f 1/64/1 2/66/2 68/66/68 67/64/67
f 4/1/4 3/3/3 69/3/69 70/1/70
f 3/3/3 5/2/5 71/2/71 69/3/69
f 6/4/6 4/1/4 70/1/70 72/4/72
f 5/2/5 7/5/7 73/5/73 71/2/71
f 8/6/8 6/4/6 72/4/72 74/6/74
f 7/5/7 9/7/9 75/7/75 73/5/73
f 10/8/10 8/6/8 74/6/74 76/8/76
f 9/7/9 11/9/11 77/9/77 75/7/75
f 12/10/12 10/8/10 76/8/76 78/10/78
f 11/9/11 13/11/13 79/11/79 77/9/77
f 14/12/14 12/10/12 78/10/78 80/12/80
f 13/11/13 15/13/15 81/13/81 79/11/79
f 16/14/16 14/12/14 80/12/80 82/14/82
f 15/13/15 17/15/17 83/15/83 81/13/81
f 18/16/18 16/14/16 82/14/82 84/16/84
f 17/15/17 19/17/19 85/17/85 83/15/83
f 20/18/20 18/16/18 84/16/84 86/18/86
f 19/17/19 21/19/21 87/19/87 85/17/85
f 22/20/22 20/18/20 86/18/86 88/20/88
f 21/19/21 23/21/23 89/21/89 87/19/87
f 24/22/24 22/20/22 88/20/88 90/22/90
f 23/21/23 25/23/25 91/23/91 89/21/89
f 26/24/26 24/22/24 90/22/90 92/24/92
f 25/23/25 27/25/27 93/25/93 91/23/91
f 28/65/28 26/24/26 92/24/92 94/65/94
f 27/25/27 29/27/29 95/27/95 93/25/93
f 30/26/30 28/65/28 94/65/94 96/26/96
f 29/27/29 31/28/31 97/28/97 95/27/95
f 32/29/32 30/26/30 96/26/96 98/29/98
f 31/28/31 33/30/33 99/30/99 97/28/97
f 34/31/34 32/29/32 98/29/98 100/31/100
f 33/30/33 35/32/35 101/32/101 99/30/99
f 36/33/36 34/31/34 100/31/100 102/33/102
f 35/32/35 37/34/37 103/34/103 101/32/101
f 38/35/38 36/33/36 102/33/102 104/35/104
f 37/34/37 39/36/39 105/36/105 103/34/103
f 40/37/40 38/35/38 104/35/104 106/37/106
f 39/36/39 41/38/41 107/38/107 105/36/105
f 42/39/42 40/37/40 106/37/106 108/39/108
f 41/38/41 43/40/43 109/40/109 107/38/107
f 44/41/44 42/39/42 108/39/108 110/41/110
f 43/40/43 45/42/45 111/42/111 109/40/109
f 46/43/46 44/41/44 110/41/110 112/43/112
f 45/42/45 47/44/47 113/44/113 111/42/111
f 48/45/48 46/43/46 112/43/112 114/45/114
f 47/44/47 49/46/49 115/46/115 113/44/113
f 50/47/50 48/45/48 114/45/114 116/47/116
f 49/46/49 51/48/51 117/48/117 115/46/115
f 52/49/52 50/47/50 116/47/116 118/49/118
f 51/48/51 53/50/53 119/50/119 117/48/117
f 54/51/54 52/49/52 118/49/118 120/51/120
f 53/50/53 55/52/55 121/52/121 119/50/119
f 56/53/56 54/51/54 120/51/120 122/53/122
f 55/52/55 57/54/57 123/54/123 121/52/121
f 58/55/58 56/53/56 122/53/122 124/55/124
f 57/54/57 59/56/59 125/56/125 123/54/123
f 60/57/60 58/55/58 124/55/124 126/57/126
f 59/56/59 61/58/61 127/58/127 125/56/125
f 62/59/62 60/57/60 126/57/126 128/59/128
f 61/58/61 63/60/63 129/60/129 127/58/127
f 64/61/64 62/59/62 128/59/128 130/61/130
f 63/60/63 65/62/65 131/62/131 129/60/129
f 66/63/66 64/61/64 130/61/130 132/63/132
f 65/62/65 1/64/1 67/64/67 131/62/131
f 2/66/2 66/63/66 132/63/132 68/66/68
