# Blender 5.1.1
# www.blender.org
mtllib tunnel_visual.mtl
o Tunnel_Inner
v -5.000000 -0.000000 -0.350000
v 5.000000 0.000000 -0.350000
v -5.000000 -0.000000 0.350000
v 5.000000 0.000000 0.350000
v -5.000000 0.034306 0.348315
v 5.000000 0.034306 0.348315
v -5.000000 0.068281 0.343275
v 5.000000 0.068282 0.343275
v -5.000000 0.101599 0.334929
v 5.000000 0.101600 0.334929
v -5.000000 0.133939 0.323358
v 5.000000 0.133940 0.323358
v -5.000000 0.164988 0.308672
v 5.000000 0.164989 0.308672
v -5.000000 0.194449 0.291014
v 5.000000 0.194450 0.291014
v -5.000000 0.222037 0.270554
v 5.000000 0.222038 0.270554
v -5.000000 0.247487 0.247487
v 5.000000 0.247488 0.247487
v -5.000000 0.270553 0.222038
v 5.000000 0.270554 0.222038
v -5.000000 0.291014 0.194450
v 5.000000 0.291015 0.194450
v -5.000000 0.308672 0.164989
v 5.000000 0.308673 0.164989
v -5.000000 0.323357 0.133939
v 5.000000 0.323358 0.133939
v -5.000000 0.334929 0.101600
v 5.000000 0.334929 0.101600
v -5.000000 0.343274 0.068282
v 5.000000 0.343275 0.068282
v -5.000000 0.348314 0.034306
v 5.000000 0.348315 0.034306
v -5.000000 0.350000 0.000000
v 5.000000 0.350000 0.000000
v -5.000000 0.348314 -0.034306
v 5.000000 0.348315 -0.034306
v -5.000000 0.343274 -0.068282
v 5.000000 0.343275 -0.068282
v -5.000000 0.334929 -0.101600
v 5.000000 0.334929 -0.101600
v -5.000000 0.323357 -0.133939
v 5.000000 0.323358 -0.133939
v -5.000000 0.308672 -0.164989
v 5.000000 0.308673 -0.164989
v -5.000000 0.291014 -0.194450
v 5.000000 0.291015 -0.194450
v -5.000000 0.270553 -0.222038
v 5.000000 0.270554 -0.222038
v -5.000000 0.247487 -0.247487
v 5.000000 0.247488 -0.247487
v -5.000000 0.222037 -0.270554
v 5.000000 0.222038 -0.270554
v -5.000000 0.194449 -0.291014
v 5.000000 0.194450 -0.291014
v -5.000000 0.164988 -0.308672
v 5.000000 0.164989 -0.308672
v -5.000000 0.133939 -0.323358
v 5.000000 0.133940 -0.323358
v -5.000000 0.101599 -0.334929
v 5.000000 0.101600 -0.334929
v -5.000000 0.068281 -0.343275
v 5.000000 0.068282 -0.343275
v -5.000000 0.034306 -0.348315
v 5.000000 0.034306 -0.348315
vn -0.0000 0.0491 -0.9988
vn -0.0000 0.0491 0.9988
vn -0.0000 0.0980 0.9952
vn -0.0000 0.1951 0.9808
vn -0.0000 0.2903 0.9569
vn -0.0000 0.3827 0.9239
vn -0.0000 0.4714 0.8819
vn -0.0000 0.5556 0.8315
vn -0.0000 0.6344 0.7730
vn -0.0000 0.7071 0.7071
vn -0.0000 0.7730 0.6344
vn -0.0000 0.8315 0.5556
vn -0.0000 0.8819 0.4714
vn -0.0000 0.9239 0.3827
vn -0.0000 0.9569 0.2903
vn -0.0000 0.9808 0.1951
vn -0.0000 0.9952 0.0980
vn -0.0000 1.0000 -0.0000
vn -0.0000 0.9952 -0.0980
vn -0.0000 0.9808 -0.1951
vn -0.0000 0.9569 -0.2903
vn -0.0000 0.9239 -0.3827
vn -0.0000 0.8819 -0.4714
vn -0.0000 0.8315 -0.5556
vn -0.0000 0.7730 -0.6344
vn -0.0000 0.7071 -0.7071
vn -0.0000 0.6344 -0.7730
vn -0.0000 0.5556 -0.8315
vn -0.0000 0.4714 -0.8819
vn -0.0000 0.3827 -0.9239
vn -0.0000 0.2903 -0.9569
vn -0.0000 0.1951 -0.9808
vn -0.0000 0.0980 -0.9952
vt 0.500000 1.000000
vt 0.484375 0.000000
vt 0.500000 0.000000
vt 0.484375 1.000000
vt 0.468750 0.000000
vt 0.468750 1.000000
vt 0.453125 0.000000
vt 0.453125 1.000000
vt 0.437500 0.000000
vt 0.437500 1.000000
vt 0.421875 0.000000
vt 0.421875 1.000000
vt 0.406250 0.000000
vt 0.406250 1.000000
vt 0.390625 0.000000
vt 0.390625 1.000000
vt 0.375000 0.000000
vt 0.375000 1.000000
vt 0.359375 0.000000
vt 0.359375 1.000000
vt 0.343750 0.000000
vt 0.343750 1.000000
vt 0.328125 0.000000
vt 0.328125 1.000000
vt 0.312500 0.000000
vt 0.296875 1.000000
vt 0.296875 0.000000
vt 0.281250 0.000000
vt 0.281250 1.000000
vt 0.265625 0.000000
vt 0.265625 1.000000
vt 0.250000 0.000000
vt 0.250000 1.000000
vt 0.234375 0.000000
vt 0.234375 1.000000
vt 0.218750 0.000000
vt 0.218750 1.000000
vt 0.203125 0.000000
vt 0.203125 1.000000
vt 0.187500 0.000000
vt 0.187500 1.000000
vt 0.171875 0.000000
vt 0.171875 1.000000
vt 0.156250 0.000000
vt 0.156250 1.000000
vt 0.140625 0.000000
vt 0.140625 1.000000
vt 0.125000 0.000000
vt 0.125000 1.000000
vt 0.109375 0.000000
vt 0.109375 1.000000
vt 0.093750 0.000000
vt 0.093750 1.000000
vt 0.078125 0.000000
vt 0.078125 1.000000
vt 0.062500 0.000000
vt 0.062500 1.000000
vt 0.046875 0.000000
vt 0.046875 1.000000
vt 0.031250 0.000000
vt 0.031250 1.000000
vt 0.015625 0.000000
vt 0.015625 1.000000
vt 0.000000 0.000000
vt 0.312500 1.000000
vt 0.000000 1.000000
s 1
usemtl tunnel_baked_mat
f 4/1/2 5/2/3 3/3/2
f 6/4/3 7/5/4 5/2/3
f 8/6/4 9/7/5 7/5/4
f 10/8/5 11/9/6 9/7/5
f 12/10/6 13/11/7 11/9/6
f 14/12/7 15/13/8 13/11/7
f 16/14/8 17/15/9 15/13/8
f 18/16/9 19/17/10 17/15/9
f 20/18/10 21/19/11 19/17/10
f 22/20/11 23/21/12 21/19/11
f 24/22/12 25/23/13 23/21/12
f 26/24/13 27/25/14 25/23/13
f 27/25/14 30/26/15 29/27/15
f 30/26/15 31/28/16 29/27/15
f 32/29/16 33/30/17 31/28/16
f 34/31/17 35/32/18 33/30/17
f 36/33/18 37/34/19 35/32/18
f 38/35/19 39/36/20 37/34/19
f 40/37/20 41/38/21 39/36/20
f 42/39/21 43/40/22 41/38/21
f 44/41/22 45/42/23 43/40/22
f 46/43/23 47/44/24 45/42/23
f 48/45/24 49/46/25 47/44/24
f 50/47/25 51/48/26 49/46/25
f 52/49/26 53/50/27 51/48/26
f 54/51/27 55/52/28 53/50/27
f 56/53/28 57/54/29 55/52/28
f 58/55/29 59/56/30 57/54/29
f 60/57/30 61/58/31 59/56/30
f 62/59/31 63/60/32 61/58/31
f 64/61/32 65/62/33 63/60/32
f 66/63/33 1/64/1 65/62/33
f 4/1/2 6/4/3 5/2/3
f 6/4/3 8/6/4 7/5/4
f 8/6/4 10/8/5 9/7/5
f 10/8/5 12/10/6 11/9/6
f 12/10/6 14/12/7 13/11/7
f 14/12/7 16/14/8 15/13/8
f 16/14/8 18/16/9 17/15/9
f 18/16/9 20/18/10 19/17/10
f 20/18/10 22/20/11 21/19/11
f 22/20/11 24/22/12 23/21/12
f 24/22/12 26/24/13 25/23/13
f 26/24/13 28/65/14 27/25/14
f 27/25/14 28/65/14 30/26/15
f 30/26/15 32/29/16 31/28/16
f 32/29/16 34/31/17 33/30/17
f 34/31/17 36/33/18 35/32/18
f 36/33/18 38/35/19 37/34/19
f 38/35/19 40/37/20 39/36/20
f 40/37/20 42/39/21 41/38/21
f 42/39/21 44/41/22 43/40/22
f 44/41/22 46/43/23 45/42/23
f 46/43/23 48/45/24 47/44/24
f 48/45/24 50/47/25 49/46/25
f 50/47/25 52/49/26 51/48/26
f 52/49/26 54/51/27 53/50/27
f 54/51/27 56/53/28 55/52/28
f 56/53/28 58/55/29 57/54/29
f 58/55/29 60/57/30 59/56/30
f 60/57/30 62/59/31 61/58/31
f 62/59/31 64/61/32 63/60/32
f 64/61/32 66/63/33 65/62/33
f 66/63/33 2/66/1 1/64/1
o Tunnel_Outer
v -5.000000 -0.000000 -0.357000
v 5.000000 0.000000 -0.357000
v -5.000000 -0.000000 0.357000
v 5.000000 0.000000 0.357000
v -5.000000 0.034992 0.355281
v 5.000000 0.034993 0.355281
v -5.000000 0.069647 0.350140
v 5.000000 0.069648 0.350140
v -5.000000 0.103631 0.341628
v 5.000000 0.103632 0.341628
v -5.000000 0.136618 0.329825
v 5.000000 0.136618 0.329825
v -5.000000 0.168288 0.314846
v 5.000000 0.168289 0.314846
v -5.000000 0.198338 0.296835
v 5.000000 0.198339 0.296835
v -5.000000 0.226478 0.275965
v 5.000000 0.226479 0.275965
v -5.000000 0.252437 0.252437
v 5.000000 0.252438 0.252437
v -5.000000 0.275964 0.226478
v 5.000000 0.275965 0.226478
v -5.000000 0.296834 0.198339
v 5.000000 0.296835 0.198339
v -5.000000 0.314845 0.168289
v 5.000000 0.314846 0.168289
v -5.000000 0.329825 0.136618
v 5.000000 0.329825 0.136618
v -5.000000 0.341627 0.103632
v 5.000000 0.341628 0.103632
v -5.000000 0.350140 0.069647
v 5.000000 0.350141 0.069647
v -5.000000 0.355281 0.034992
v 5.000000 0.355281 0.034992
v -5.000000 0.357000 0.000000
v 5.000000 0.357000 0.000000
v -5.000000 0.355281 -0.034992
v 5.000000 0.355281 -0.034992
v -5.000000 0.350140 -0.069647
v 5.000000 0.350141 -0.069647
v -5.000000 0.341627 -0.103632
v 5.000000 0.341628 -0.103632
v -5.000000 0.329825 -0.136618
v 5.000000 0.329825 -0.136618
v -5.000000 0.314845 -0.168289
v 5.000000 0.314846 -0.168289
v -5.000000 0.296834 -0.198339
v 5.000000 0.296835 -0.198339
v -5.000000 0.275964 -0.226478
v 5.000000 0.275965 -0.226478
v -5.000000 0.252437 -0.252437
v 5.000000 0.252438 -0.252437
v -5.000000 0.226478 -0.275965
v 5.000000 0.226479 -0.275965
v -5.000000 0.198338 -0.296835
v 5.000000 0.198339 -0.296835
v -5.000000 0.168288 -0.314846
v 5.000000 0.168289 -0.314846
v -5.000000 0.136618 -0.329825
v 5.000000 0.136618 -0.329825
v -5.000000 0.103631 -0.341628
v 5.000000 0.103632 -0.341628
v -5.000000 0.069647 -0.350140
v 5.000000 0.069648 -0.350140
v -5.000000 0.034992 -0.355281
v 5.000000 0.034993 -0.355281
vn -0.0000 0.0491 0.9988
vn -0.0000 0.1467 0.9892
vn -0.0000 0.2430 0.9700
vn -0.0000 0.3369 0.9415
vn -0.0000 0.4276 0.9040
vn -0.0000 0.5141 0.8577
vn -0.0000 0.5957 0.8032
vn -0.0000 0.6716 0.7410
vn -0.0000 0.7410 0.6716
vn -0.0000 0.8032 0.5957
vn -0.0000 0.8577 0.5141
vn -0.0000 0.9040 0.4276
vn -0.0000 0.9415 0.3369
vn -0.0000 0.9700 0.2430
vn -0.0000 0.9892 0.1467
vn -0.0000 0.9988 0.0491
vn -0.0000 0.9988 -0.0491
vn -0.0000 0.9892 -0.1467
vn -0.0000 0.9700 -0.2430
vn -0.0000 0.9415 -0.3369
vn -0.0000 0.9040 -0.4276
vn -0.0000 0.8577 -0.5141
vn -0.0000 0.8032 -0.5957
vn -0.0000 0.7410 -0.6716
vn -0.0000 0.6716 -0.7410
vn -0.0000 0.5957 -0.8032
vn -0.0000 0.5141 -0.8577
vn -0.0000 0.4276 -0.9040
vn -0.0000 0.3369 -0.9415
vn -0.0000 0.2430 -0.9700
vn -0.0000 0.1467 -0.9892
vn -0.0000 0.0491 -0.9988
vt 0.500000 1.000000
vt 0.484375 0.000000
vt 0.500000 0.000000
vt 0.484375 1.000000
vt 0.468750 0.000000
vt 0.468750 1.000000
vt 0.453125 0.000000
vt 0.453125 1.000000
vt 0.437500 0.000000
vt 0.437500 1.000000
vt 0.421875 0.000000
vt 0.421875 1.000000
vt 0.406250 0.000000
vt 0.406250 1.000000
vt 0.390625 0.000000
vt 0.390625 1.000000
vt 0.375000 0.000000
vt 0.375000 1.000000
vt 0.359375 0.000000
vt 0.359375 1.000000
vt 0.343750 0.000000
vt 0.343750 1.000000
vt 0.328125 0.000000
vt 0.328125 1.000000
vt 0.312500 0.000000
vt 0.296875 1.000000
vt 0.296875 0.000000
vt 0.281250 0.000000
vt 0.281250 1.000000
vt 0.265625 0.000000
vt 0.265625 1.000000
vt 0.250000 0.000000
vt 0.250000 1.000000
vt 0.234375 0.000000
vt 0.234375 1.000000
vt 0.218750 0.000000
vt 0.218750 1.000000
vt 0.203125 0.000000
vt 0.203125 1.000000
vt 0.187500 0.000000
vt 0.187500 1.000000
vt 0.171875 0.000000
vt 0.171875 1.000000
vt 0.156250 0.000000
vt 0.156250 1.000000
vt 0.140625 0.000000
vt 0.140625 1.000000
vt 0.125000 0.000000
vt 0.125000 1.000000
vt 0.109375 0.000000
vt 0.109375 1.000000
vt 0.093750 0.000000
vt 0.093750 1.000000
vt 0.078125 0.000000
vt 0.078125 1.000000
vt 0.062500 0.000000
vt 0.062500 1.000000
vt 0.046875 0.000000
vt 0.046875 1.000000
vt 0.031250 0.000000
vt 0.031250 1.000000
vt 0.015625 0.000000
vt 0.015625 1.000000
vt 0.000000 0.000000
vt 0.312500 1.000000
vt 0.000000 1.000000
s 0
usemtl tunnel_outer_gray
f 70/67/34 71/68/34 69/69/34
f 72/70/35 73/71/35 71/68/35
f 74/72/36 75/73/36 73/71/36
f 76/74/37 77/75/37 75/73/37
f 78/76/38 79/77/38 77/75/38
f 80/78/39 81/79/39 79/77/39
f 82/80/40 83/81/40 81/79/40
f 84/82/41 85/83/41 83/81/41
f 86/84/42 87/85/42 85/83/42
f 88/86/43 89/87/43 87/85/43
f 90/88/44 91/89/44 89/87/44
f 92/90/45 93/91/45 91/89/45
f 93/91/46 96/92/46 95/93/46
f 96/92/47 97/94/47 95/93/47
f 98/95/48 99/96/48 97/94/48
f 100/97/49 101/98/49 99/96/49
f 102/99/50 103/100/50 101/98/50
f 104/101/51 105/102/51 103/100/51
f 106/103/52 107/104/52 105/102/52
f 108/105/53 109/106/53 107/104/53
f 110/107/54 111/108/54 109/106/54
f 112/109/55 113/110/55 111/108/55
f 114/111/56 115/112/56 113/110/56
f 116/113/57 117/114/57 115/112/57
f 118/115/58 119/116/58 117/114/58
f 120/117/59 121/118/59 119/116/59
f 122/119/60 123/120/60 121/118/60
f 124/121/61 125/122/61 123/120/61
f 126/123/62 127/124/62 125/122/62
f 128/125/63 129/126/63 127/124/63
f 130/127/64 131/128/64 129/126/64
f 132/129/65 67/130/65 131/128/65
f 70/67/34 72/70/34 71/68/34
f 72/70/35 74/72/35 73/71/35
f 74/72/36 76/74/36 75/73/36
f 76/74/37 78/76/37 77/75/37
f 78/76/38 80/78/38 79/77/38
f 80/78/39 82/80/39 81/79/39
f 82/80/40 84/82/40 83/81/40
f 84/82/41 86/84/41 85/83/41
f 86/84/42 88/86/42 87/85/42
f 88/86/43 90/88/43 89/87/43
f 90/88/44 92/90/44 91/89/44
f 92/90/45 94/131/45 93/91/45
f 93/91/46 94/131/46 96/92/46
f 96/92/47 98/95/47 97/94/47
f 98/95/48 100/97/48 99/96/48
f 100/97/49 102/99/49 101/98/49
f 102/99/50 104/101/50 103/100/50
f 104/101/51 106/103/51 105/102/51
f 106/103/52 108/105/52 107/104/52
f 108/105/53 110/107/53 109/106/53
f 110/107/54 112/109/54 111/108/54
f 112/109/55 114/111/55 113/110/55
f 114/111/56 116/113/56 115/112/56
f 116/113/57 118/115/57 117/114/57
f 118/115/58 120/117/58 119/116/58
f 120/117/59 122/119/59 121/118/59
f 122/119/60 124/121/60 123/120/60
f 124/121/61 126/123/61 125/122/61
f 126/123/62 128/125/62 127/124/62
f 128/125/63 130/127/63 129/126/63
f 130/127/64 132/129/64 131/128/64
f 132/129/65 68/132/65 67/130/65
